<?xml version="1.0" encoding="utf-8"?>
<!-- Generator: Adobe Illustrator 27.8.0, SVG Export Plug-In . SVG Version: 6.00 Build 0)  -->
<svg version="1.1" id="Layer_1" xmlns="http://www.w3.org/2000/svg" xmlns:xlink="http://www.w3.org/1999/xlink" x="0px" y="0px"
	 viewBox="0 0 512 512" style="enable-background:new 0 0 512 512;" xml:space="preserve">
<style type="text/css">
	.st0{fill:#414042;}
	.st1{fill:#BCBEC0;}
	.st2{fill:#FFFFFF;}
</style>
<path class="st0" d="M440.4,512.2H71.7C32,512.2-0.2,480-0.2,440.3V72C-0.2,32.3,32,0.1,71.7,0.1h368.7c39.7,0,71.9,32.2,71.9,71.9
	v368.3C512.4,480,480.2,512.2,440.4,512.2z"/>
<g>
	<path class="st1" d="M101.9,229.6c-3,15.4-5.2,36.4-6,41.8c-1.4,5.6-4.6,5.8-7.2,5.8c-3,0-19-5-22.6-6.4c-7-2.2,4.2-40.2,12.6-77.2
		c1.2-24.8,6.6-68.2,15.2-68.2c7,0,25.6,7.4,25.2,9.6l-1.6,10.2c6.6-9,14.4-15.6,23.6-15.6c22.4,0,35.4,19,35.2,38.8
		c-0.2,31.8-21,69.6-52.4,69.6C112.7,238,106.1,234.6,101.9,229.6z M121.3,218.2c15.4,0,23.2-46.2,24.2-56.4
		c0.4-5,2.2-17.2-4.2-17.2c-9.4,0-19,30.2-21.2,40c-0.2,0.8-3.8-0.6-4.6-1.4c0,0-1.4,5.6-2,11.2
		C112.3,207.6,114.7,218.2,121.3,218.2z"/>
	<path class="st1" d="M202.5,229.6c-3,15.4-5.2,36.4-6,41.8c-1.4,5.6-4.6,5.8-7.2,5.8c-3,0-19-5-22.6-6.4c-7-2.2,4.2-40.2,12.6-77.2
		c1.2-24.8,6.6-68.2,15.2-68.2c7,0,25.6,7.4,25.2,9.6l-1.6,10.2c6.6-9,14.4-15.6,23.6-15.6c22.4,0,35.4,19,35.2,38.8
		c-0.2,31.8-21,69.6-52.4,69.6C213.3,238,206.7,234.6,202.5,229.6z M221.9,218.2c15.4,0,23.2-46.2,24.2-56.4
		c0.4-5,2.2-17.2-4.2-17.2c-9.4,0-19,30.2-21.2,40c-0.2,0.8-3.8-0.6-4.6-1.4c0,0-1.4,5.6-2,11.2
		C212.9,207.6,215.3,218.2,221.9,218.2z"/>
	<path class="st1" d="M272.9,136.8c3.2-1.8,15.2-4,28.8-6c5.6-13.6,11-24,14.4-25.6c5.2-2.4,26.8,7.6,26.2,9.6l-4,11.8l6.4-0.4
		c6.6-0.4,12.6-1.2,14.2,1.4c2,2.8,6.2,4.8,10.4,6.4c1.6,0.6,6.2,11,6.2,12.2c0,1.4-0.6,3-4.6,3c-11.4,0.2-26,1.2-40.4,2.6
		c-6.4,21.8-12.4,44.6-12.4,57.6c0,5.8,2.6,8.4,6,8.4c15.6,0,26.2-18.8,27.6-28c0,0,17.4-2.6,17.4,15c0,20.8-26.6,33.8-51.4,33.8
		c-20.8,0-35.6-13.6-35.6-34.8c0-10.2,4.4-29,10.4-47.6c-3.6,0.4-6.6,1-8.6,1.2C275.9,158.6,268.9,139.2,272.9,136.8z"/>
	<path class="st1" d="M443.3,242.8c-2.6,2.4-7.6,3-10.4-1c-6.6-9.6-14.8-23-23.8-36.8c-5.8,6.2-11,11.6-14.6,14.6l1.2,3.8
		c-16.6,13.6-25.8,14.2-25.8,14.2c-5,0.2-22.4-17.8-19-21.2c9.2-9.4,23.4-25,38-40.2c-8-10.2-16.4-19.4-24.6-26.2
		c-3.8-3-1.2-5.2,0.6-6.8l9.8-11.4c1.4-1.2,6.6-0.4,10.8,3.2c6.6,5.8,13.8,14,21,23.2c15.8-15.8,30-28.2,36.4-28.2
		c5,0,22.2,18.8,20.2,22.6c-8.4,3.8-22.8,18.6-36.8,33.6c8.6,13.2,16.4,26.4,22.8,36.6c2,3.4,5.4,10.2,1.6,13.6L443.3,242.8z"/>
</g>
<g>
	<path class="st2" d="M77.3,370.6c-1.5,7.7-2.6,18.2-3,20.9c-0.7,2.8-2.3,2.9-3.6,2.9c-1.5,0-9.5-2.5-11.3-3.2
		c-3.5-1.1,2.1-20.1,6.3-38.6c0.6-12.4,3.3-34.1,7.6-34.1c3.5,0,12.8,3.7,12.6,4.8l-0.8,5.1c3.3-4.5,7.2-7.8,11.8-7.8
		c11.2,0,17.7,9.5,17.6,19.4c-0.1,15.9-10.5,34.8-26.2,34.8C82.7,374.8,79.4,373.1,77.3,370.6z M87,364.9c7.7,0,11.6-23.1,12.1-28.2
		c0.2-2.5,1.1-8.6-2.1-8.6c-4.7,0-9.5,15.1-10.6,20c-0.1,0.4-1.9-0.3-2.3-0.7c0,0-0.7,2.8-1,5.6C82.5,359.6,83.7,364.9,87,364.9z"/>
	<path class="st2" d="M130.9,339.4c2.5-5.6,4.5-13.5,5.8-17.5c1-2.9,4.3-4,9.6-2.9c4.9,1,5.5,3.3,5.4,5c-0.2,3.3-5.3,10-5.7,16.3
		c-0.1,1.2,0.7,2.6,2.2,2.6c5.1,0,7.7-8.6,8.1-8.6c0.6,0,6-0.1,6,4.6c0,6.1-5.2,13.6-13.1,13.6c-9.1,0-10.6-6.9-10.7-11.6
		c-2.7,5.4-7.8,20.6-8.5,32.6c-3.6,1.4-18-2.7-18-4.9c0-2.9,1.2-12.2,3.5-30.6c0.8-7.5,1.8-18.3,7-18.3c4,0,10.5,3.3,10.5,3.3
		c-0.6,4.6-2.1,11-2.7,16.1L130.9,339.4z"/>
	<path class="st2" d="M171,318.6c2,0.7,3.5,1.6,4,2.6c0,0,2.2-1.3,5.5-1.3c16.7,0,19.3,9.9,18.9,20.4c-0.7,11.2-6.7,35.4-27,35.4
		c-16.6,0-22.7-14-22.2-25.2C151,337.3,160.9,320.5,171,318.6z M170.9,365.7c8.1,0,12.3-23.5,12.8-28.6c0.2-2.7,1.1-8.8-2.4-8.8
		c-5.1,0-10.2,15.3-11.3,20.3c-0.1,0.3-2.1-0.3-2.5-0.8c0,0-0.8,2.5-1,5.7C165.8,360.3,167.2,365.7,170.9,365.7z"/>
	<path class="st2" d="M224,344c-3.2,7.6-7.8,20.9-8.3,29.1c0,0-2.6,1.6-5.4,1.6c-8.5,0-13.1-4.8-13.1-13c0-17.3,6.9-42.6,10.4-42.6
		c4.8,0,11.4,3.1,10.9,4.6c-2.4,8.6-5.3,19.7-5.7,25.4h0.4c3.9-9.7,7.5-20.6,10.5-27c0.4-0.8,3.2-1.1,4.6-1.1
		c7.7,0,13.7,3.5,13.2,6.3c-0.8,6.1-2.5,16-3.2,22.8h0.4c3.9-9.6,7.1-20.9,12.6-30.2c0.4-0.8,2.8-1.6,4.9-1.6c7.1,0,15.2,3.9,14.6,7
		c-1.9,10.1-7.9,25.3-7.9,35c0,4.4,1.1,6.6,3.5,6.6c3.3,0,5.9-7.3,6.6-9.5c0,0,7.5-1.2,7.5,4.8c0,5.3-5,14-16.8,14
		c-12.5,0-16.4-6.7-15.8-14.8c0.2-3.7,2.1-12.5,3.2-16.9h-1c-4.1,7.7-8.7,23.7-9.2,31.9c0,0-2.4,1.2-5.8,1.2
		c-8.5,0-12.7-4.4-12.4-11c0.4-7.2,1-15.8,2-22.6H224z"/>
	<path class="st2" d="M283.4,370.6c-1.5,7.7-2.6,18.2-3,20.9c-0.7,2.8-2.3,2.9-3.6,2.9c-1.5,0-9.5-2.5-11.3-3.2
		c-3.5-1.1,2.1-20.1,6.3-38.6c0.6-12.4,3.3-34.1,7.6-34.1c3.5,0,12.8,3.7,12.6,4.8l-0.8,5.1c3.3-4.5,7.2-7.8,11.8-7.8
		c11.2,0,17.7,9.5,17.6,19.4c-0.1,15.9-10.5,34.8-26.2,34.8C288.8,374.8,285.5,373.1,283.4,370.6z M293.1,364.9
		c7.7,0,11.6-23.1,12.1-28.2c0.2-2.5,1.1-8.6-2.1-8.6c-4.7,0-9.5,15.1-10.6,20c-0.1,0.4-1.9-0.3-2.3-0.7c0,0-0.7,2.8-1,5.6
		C288.6,359.6,289.8,364.9,293.1,364.9z"/>
	<path class="st2" d="M316.1,324.2c1.6-0.9,7.6-2,14.4-3c2.8-6.8,5.5-12,7.2-12.8c2.6-1.2,13.4,3.8,13.1,4.8l-2,5.9l3.2-0.2
		c3.3-0.2,6.3-0.6,7.1,0.7c1,1.4,3.1,2.4,5.2,3.2c0.8,0.3,3.1,5.5,3.1,6.1c0,0.7-0.3,1.5-2.3,1.5c-5.7,0.1-13,0.6-20.2,1.3
		c-3.2,10.9-6.2,22.3-6.2,28.8c0,2.9,1.3,4.2,3,4.2c7.8,0,13.1-9.4,13.8-14c0,0,8.7-1.3,8.7,7.5c0,10.4-13.3,16.9-25.7,16.9
		c-10.4,0-17.8-6.8-17.8-17.4c0-5.1,2.2-14.5,5.2-23.8c-1.8,0.2-3.3,0.5-4.3,0.6C317.6,335.1,314.1,325.4,316.1,324.2z"/>
	<path class="st2" d="M380.7,317.4c5.8,0,16.5,4.3,16.5,15.3c0,12.8-7.7,22.8-14.2,22.8c-5.8,0-8.4-4.3-8.6-4.7
		c-0.1,0.2-2.2,5.2-2.2,12.1c0,4.9,2.2,7,5.9,7c9.4,0,15.1-10.7,16.1-16.4c0,0,1.1-0.8,2.7-0.8c4.6,0,8.4,1.8,8.4,5.9
		c0,8.1-7.6,20.8-24.7,20.8c-11.7,0-24.1-7.1-24.1-19.6C356.5,341.6,365.6,317.4,380.7,317.4z M377.9,346.3c3.3,0,5.9-9.2,6-16
		c0.1-3.7-0.5-4.1-1-4.1c-0.4,0-0.8,0.3-1.4,1.6c-2.2,4.7-4.8,11.3-5.8,16.4C375.7,344.2,376.1,346.3,377.9,346.3z"/>
	<path class="st2" d="M415.4,339.4c2.5-5.6,4.5-13.5,5.8-17.5c1-2.9,4.3-4,9.6-2.9c4.9,1,5.5,3.3,5.4,5c-0.2,3.3-5.3,10-5.7,16.3
		c-0.1,1.2,0.7,2.6,2.2,2.6c5.1,0,7.7-8.6,8.1-8.6c0.6,0,6-0.1,6,4.6c0,6.1-5.2,13.6-13.1,13.6c-9.1,0-10.6-6.9-10.7-11.6
		c-2.7,5.4-7.8,20.6-8.5,32.6c-3.6,1.4-18-2.7-18-4.9c0-2.9,1.2-12.2,3.5-30.6c0.8-7.5,1.8-18.3,7-18.3c4,0,10.5,3.3,10.5,3.3
		c-0.6,4.6-2.1,11-2.7,16.1L415.4,339.4z"/>
</g>
<g>
</g>
<g>
</g>
<g>
</g>
<g>
</g>
<g>
</g>
<g>
</g>
</svg>
